<?xml version="1.0" encoding="UTF-8"?>
<svg width="70px" height="64px" viewBox="0 0 70 64" version="1.1" xmlns="http://www.w3.org/2000/svg" xmlns:xlink="http://www.w3.org/1999/xlink">
    <!-- Generator: Sketch 63.1 (92452) - https://sketch.com -->
    <title>Playlist Icon</title>
    <desc>Created with Sketch.</desc>
    <g id="Page-1" stroke="none" stroke-width="1" fill="none" fill-rule="evenodd">
        <g id="Artboard" transform="translate(-71.000000, -49.000000)" fill="#FFFFFF" fill-rule="nonzero">
            <g id="Playlist-Icon" transform="translate(71.000000, 49.000000)">
                <path d="M52.866426,24 L66.133574,24 C68.2563177,24 70,22.6470588 70,21 C70,19.3529412 68.2563177,18 66.133574,18 L52.866426,18 C50.7436823,18 49,19.3529412 49,21 C49,22.6470588 50.66787,24 52.866426,24 Z" id="Path"></path>
                <path d="M66.4115139,34 L40.5884861,34 C38.6183369,34 37,35.3529412 37,37 C37,38.6470588 38.6183369,40 40.5884861,40 L66.4115139,40 C68.3816631,40 70,38.6470588 70,37 C70,35.3529412 68.3816631,34 66.4115139,34 Z" id="Path"></path>
                <path d="M66.4115139,49 L40.5884861,49 C38.6183369,49 37,50.3529412 37,52 C37,53.6470588 38.6183369,55 40.5884861,55 L66.4115139,55 C68.3816631,55 70,53.6470588 70,52 C70,50.3529412 68.3816631,49 66.4115139,49 Z" id="Path"></path>
                <path d="M36.0463013,25.8420467 C35.605817,27.0522803 37.2209262,27.9777531 38.1018949,26.9810901 C53.8859168,9.96662959 26.7227163,0 23.8595681,0 C21.6571464,0 19.821795,1.77975528 19.821795,3.91546162 L19.821795,42.6429366 L19.2344826,42.429366 C17.5459593,41.8598443 15.784022,41.6462736 13.9486706,41.6462736 C6.09336662,41.6462736 0,46.5583982 0,52.8231368 C0,59.0878754 6.16678067,64 13.9486706,64 C21.8039745,64 27.8973411,59.0878754 27.8973411,52.8231368 L27.8973411,11.7463849 C27.8973411,11.7463849 40.3777306,13.5973304 36.0463013,25.8420467 Z" id="Path"></path>
            </g>
        </g>
    </g>
</svg>